  <svg id="logo" xmlns="http://www.w3.org/2000/svg" width="132" height="52" viewBox="0 0 132 52" fill="none">
                  <g clip-path="url(#clip0_607_293)">
                    <path d="M30.7341 11.86L14.1041 0.185002C14.0861 0.172973 14.0724 0.155469 14.0651 0.135075C14.0578 0.11468 14.0572 0.092476 14.0635 0.0717406C14.0698 0.0510053 14.0825 0.0328377 14.0999 0.0199201C14.1173 0.0070025 14.1384 1.96211e-05 14.1601 2.40709e-06H49.1061C49.123 -0.000114154 49.1396 0.00400428 49.1545 0.0119811C49.1694 0.0199578 49.182 0.0315384 49.1913 0.0456637C49.2005 0.059789 49.2061 0.0760082 49.2075 0.0928381C49.2088 0.109668 49.2059 0.126571 49.1991 0.142002L34.8641 32.052C34.8554 32.0715 34.8407 32.0878 34.8223 32.0986C34.8038 32.1094 34.7824 32.1141 34.7611 32.112C34.7399 32.1095 34.72 32.1005 34.7042 32.0862C34.6884 32.0718 34.6775 32.0529 34.6731 32.032L30.7771 11.923C30.7743 11.91 30.769 11.8976 30.7615 11.8866C30.7539 11.8756 30.7443 11.8662 30.7331 11.859L30.7341 11.86ZM99.6181 3.293H89.2631C89.2416 3.293 89.221 3.30154 89.2058 3.31673C89.1906 3.33192 89.1821 3.35252 89.1821 3.374V47.408C89.1821 47.453 89.2181 47.489 89.2621 47.489H99.6181C99.6394 47.4887 99.6597 47.4801 99.6747 47.4649C99.6897 47.4498 99.6981 47.4293 99.6981 47.408V3.374C99.6981 3.35269 99.6897 3.33224 99.6747 3.31708C99.6597 3.30192 99.6394 3.29327 99.6181 3.293ZM85.1231 9.45H74.7701C74.7594 9.44987 74.7487 9.45187 74.7388 9.45588C74.7288 9.45989 74.7198 9.46584 74.7122 9.47337C74.7045 9.48091 74.6985 9.48988 74.6943 9.49977C74.6902 9.50967 74.6881 9.52028 74.6881 9.531V47.761C74.6881 47.806 74.7251 47.843 74.7701 47.843H85.1241C85.1348 47.8431 85.1454 47.8411 85.1554 47.8371C85.1653 47.8331 85.1744 47.8272 85.182 47.8196C85.1896 47.8121 85.1957 47.8031 85.1998 47.7932C85.204 47.7833 85.2061 47.7727 85.2061 47.762V9.532C85.2062 9.5212 85.2042 9.51047 85.2001 9.50046C85.196 9.49046 85.19 9.48136 85.1824 9.47372C85.1747 9.46608 85.1656 9.46005 85.1556 9.45597C85.1456 9.4519 85.1339 9.44987 85.1231 9.45ZM25.9281 51.667L17.8861 51.657C17.8532 51.657 17.8211 51.6475 17.7935 51.6298C17.7658 51.6121 17.7438 51.5868 17.7301 51.557L0.0150823 12.226C0.00334455 12.2 -0.00167321 12.1715 0.000490529 12.1431C0.00265426 12.1147 0.01193 12.0873 0.0274646 12.0634C0.0429992 12.0395 0.064294 12.0198 0.0893902 12.0063C0.114486 11.9928 0.142578 11.9858 0.171082 11.986H16.6221C16.6552 11.9858 16.6877 11.9953 16.7156 12.0132C16.7435 12.0311 16.7655 12.0568 16.7791 12.087L30.2881 42.087C30.2979 42.109 30.303 42.1329 30.303 42.157C30.303 42.1811 30.2979 42.205 30.2881 42.227L26.0841 51.564C26.0708 51.5943 26.049 51.6202 26.0213 51.6383C25.9936 51.6564 25.9612 51.667 25.9281 51.667ZM61.5201 45.446C61.5241 45.27 61.4581 45.239 61.3231 45.353C58.3081 47.919 54.3691 48.745 50.5431 48.083C45.4891 47.211 42.4281 43.167 42.9351 38.019C43.4451 32.827 48.5711 30.557 53.1051 30.398C55.5519 30.3139 58.0007 30.3039 60.4481 30.368C60.4731 30.3687 60.4979 30.3643 60.5211 30.3551C60.5443 30.3459 60.5655 30.3321 60.5832 30.3146C60.601 30.297 60.615 30.276 60.6244 30.2529C60.6339 30.2298 60.6385 30.205 60.6381 30.18C60.6251 27.658 59.3411 26.305 56.7861 26.122C53.5481 25.89 51.1801 27.56 48.8721 29.612C48.8585 29.6239 48.8426 29.6329 48.8254 29.6384C48.8082 29.6439 48.7901 29.6458 48.7721 29.644C48.7543 29.642 48.7371 29.6363 48.7217 29.6274C48.7062 29.6184 48.6927 29.6064 48.6821 29.592L44.1531 23.432C44.0721 23.322 44.0801 23.219 44.1761 23.125C49.0141 18.359 55.2641 16.245 61.7201 17.895C67.9591 19.489 70.7241 24.142 70.7561 30.25C70.7861 36.094 70.7911 41.817 70.7681 47.42C70.7681 47.4571 70.7533 47.4927 70.7271 47.519C70.7008 47.5453 70.6652 47.56 70.6281 47.56L61.6451 47.562C61.5401 47.562 61.4891 47.51 61.4911 47.405L61.5211 45.445L61.5201 45.446ZM53.2731 37.944C52.9461 38.786 53.0691 39.548 53.6411 40.228C54.5831 41.347 56.7511 41.242 57.9841 40.764C59.7001 40.099 60.5821 38.754 60.6301 36.729C60.6341 36.611 60.5771 36.551 60.4601 36.549C58.7581 36.526 57.1141 36.536 55.5251 36.579C54.3651 36.609 53.6151 37.065 53.2731 37.944ZM112.737 36.456C112.72 36.4559 112.702 36.4604 112.687 36.469C112.671 36.4774 112.658 36.4899 112.649 36.5053C112.64 36.5206 112.635 36.5381 112.635 36.556C112.635 36.5735 112.639 36.5908 112.648 36.606C113.529 38.152 114.79 38.94 116.451 39.361C119.816 40.211 123.518 39.294 126.614 37.459C126.639 37.4449 126.666 37.4358 126.693 37.4322C126.721 37.4286 126.75 37.4306 126.777 37.438C126.804 37.4457 126.829 37.4587 126.851 37.4762C126.873 37.4937 126.891 37.5154 126.904 37.54L130.481 44.283C130.492 44.3022 130.495 44.3246 130.49 44.3459C130.485 44.3673 130.473 44.3861 130.455 44.399C127.319 46.739 123.81 48.039 119.93 48.298C115.257 48.611 110.537 47.382 107.047 44.216C103.023 40.568 101.436 35.85 102.284 30.064C102.686 27.334 103.836 24.892 105.734 22.739C109.087 18.941 113.372 17.139 118.59 17.335C122.985 17.497 126.774 19.272 129.313 22.805C130.794 24.869 131.651 27.058 131.884 29.371C132.126 31.739 131.989 33.994 131.473 36.137C131.421 36.35 131.285 36.457 131.067 36.457L112.737 36.456ZM112.421 29.809L122.295 29.687C122.299 29.687 122.303 29.687 122.306 29.685C122.31 29.6839 122.313 29.6818 122.315 29.679C122.318 29.6761 122.32 29.6727 122.322 29.669C122.323 29.6658 122.324 29.6624 122.324 29.659V29.647C122.31 28.514 121.778 27.433 120.844 26.643C119.911 25.853 118.653 25.419 117.347 25.435H117.265C116.623 25.442 115.986 25.5597 115.384 25.783C114.802 25.9976 114.264 26.3184 113.798 26.729C113.355 27.1183 112.997 27.5949 112.747 28.129C112.508 28.6423 112.386 29.2027 112.392 29.769V29.78C112.392 29.788 112.395 29.795 112.401 29.8C112.404 29.8028 112.407 29.805 112.41 29.8065C112.414 29.8081 112.417 29.8089 112.421 29.809Z" fill="#E6E6E6" />
                  </g>
                  <defs>
                    <clipPath id="clip0_607_293">
                      <rect width="132" height="52" fill="white" />
                    </clipPath>
                  </defs>
                </svg>